<svg version="1.1" viewBox="0.0 0.0 912.0 312.0" fill="none" stroke="none" stroke-linecap="square" stroke-miterlimit="10" xmlns:xlink="http://www.w3.org/1999/xlink" xmlns="http://www.w3.org/2000/svg"><clipPath id="p.0"><path d="m0 0l912.0 0l0 312.0l-912.0 0l0 -312.0z" clip-rule="nonzero"/></clipPath><g clip-path="url(#p.0)"><path fill="#000000" fill-opacity="0.0" d="m0 0l912.0 0l0 312.0l-912.0 0z" fill-rule="evenodd"/><path fill="#000000" fill-opacity="0.0" d="m111.43915 13.101321l181.38321 0c6.1035156E-4 0 0.0012207031 2.4700165E-4 0.0016479492 6.8569183E-4c4.5776367E-4 4.3964386E-4 7.019043E-4 0.0010356903 7.019043E-4 0.001657486l-0.0023498535 181.38087l0 0c0 55.12555 -44.68808 99.813614 -99.81363 99.813614l-181.38321 0l0 0c-0.001294136 0 -0.0023441315 -0.0010375977 -0.0023441315 -0.002319336l0.0023441315 -181.38089l0 0c0 -55.12555 44.688087 -99.81364 99.81364 -99.81364z" fill-rule="evenodd"/><path stroke="#000000" stroke-width="16.0" stroke-linejoin="round" stroke-linecap="butt" d="m111.43915 13.101321l181.38321 0c6.1035156E-4 0 0.0012207031 2.4700165E-4 0.0016479492 6.8569183E-4c4.5776367E-4 4.3964386E-4 7.019043E-4 0.0010356903 7.019043E-4 0.001657486l-0.0023498535 181.38087l0 0c0 55.12555 -44.68808 99.813614 -99.81363 99.813614l-181.38321 0l0 0c-0.001294136 0 -0.0023441315 -0.0010375977 -0.0023441315 -0.002319336l0.0023441315 -181.38089l0 0c0 -55.12555 44.688087 -99.81364 99.81364 -99.81364z" fill-rule="evenodd"/><path fill="#000000" fill-opacity="0.0" d="m23.5 0l257.44882 0l0 254.01575l-257.44882 0z" fill-rule="evenodd"/><path fill="#000000" d="m58.59375 242.68124q-2.703125 0 -9.703125 -1.0q-5.5625 -5.90625 -8.78125 -13.46875q-3.203125 -7.578125 -4.828125 -15.9375q-1.609375 -8.375 -1.484375 -16.96875q0.125 -8.59375 6.53125 -13.875q-3.84375 -0.984375 -1.421875 -6.84375q2.421875 -5.859375 5.9375 -14.203125q3.53125 -8.34375 8.0 -18.5625q4.46875 -10.234375 8.9375 -20.140625q4.484375 -9.90625 8.6875 -18.1875q4.203125 -8.28125 7.390625 -12.953125q2.015625 -3.125 3.765625 -6.15625q1.75 -3.046875 3.421875 -5.671875q2.5625 -4.1875 4.90625 -8.03125q2.359375 -3.84375 5.421875 -7.15625q3.0625 -3.328125 6.84375 -5.890625q3.796875 -2.578125 10.90625 -5.078125q4.9375 2.0625 7.53125 3.65625q2.609375 1.578125 5.609375 5.015625l0.9375 4.375q-0.90625 0.09375 -1.25 0.703125q-0.328125 0.609375 0.234375 -1.671875q3.921875 0.90625 5.984375 1.671875q2.0625 0.75 6.359375 1.140625q2.359375 3.515625 3.125 4.828125q0.765625 1.3125 1.578125 2.34375q5.015625 7.265625 8.625 14.765625q3.609375 7.5 0.1875 15.921875l0 0.03125q1.3125 1.828125 1.3125 4.265625q0 2.4375 -0.53125 5.328125q-0.1875 1.546875 -0.28125 3.28125q-0.09375 1.734375 0.09375 2.4375l0.234375 0.265625q1.828125 0.90625 4.15625 0.90625q3.375 0 6.484375 -1.75q3.125 -1.75 6.15625 -3.703125q2.75 -2.0 5.4375 -3.40625q2.6875 -1.421875 4.09375 -1.734375q3.96875 -3.796875 8.125 -7.46875q4.171875 -3.6875 8.71875 -7.515625q8.28125 -6.671875 15.78125 -14.0625q7.515625 -7.40625 12.40625 -19.65625q5.171875 -3.28125 9.90625 -3.28125q4.234375 0 8.046875 1.5q3.828125 1.5 7.59375 3.390625q0.53125 0.34375 1.109375 0.578125q0.59375 0.234375 3.953125 2.484375q0 3.171875 0.453125 3.625q0.53125 0.4375 0.765625 0.5625q0.234375 0.109375 0.921875 0.453125q2.21875 1.390625 4.125 2.78125q1.921875 1.390625 3.25 4.484375q1.671875 4.984375 7.84375 9.40625q-0.828125 4.546875 -0.328125 6.328125q0.515625 1.765625 1.28125 3.6875q0.59375 1.15625 0.84375 2.078125q0.265625 0.921875 3.671875 9.4375l-8.046875 -1.625l0.859375 -0.171875q0.875 4.953125 -0.640625 10.734375q-1.515625 5.78125 -2.71875 7.875q0.375 5.65625 0.375 10.015625q0 4.34375 -0.53125 8.265625q-0.515625 3.90625 -1.6875 7.4375q-1.171875 3.53125 -2.40625 6.171875q0.921875 17.53125 -4.3125 32.875q-5.234375 15.328125 -11.171875 28.390625q-0.75 1.734375 -1.40625 3.046875q-0.65625 1.3125 -1.859375 4.921875q-4.78125 1.296875 -6.5625 2.09375q-1.765625 0.78125 -3.328125 1.765625q-2.9375 1.859375 -6.1875 3.1875q-3.234375 1.328125 -8.65625 1.328125q-14.578125 -10.625 -14.96875 -32.390625q-0.375 -21.78125 9.21875 -55.34375q2.3125 0.21875 0.734375 -0.21875l2.390625 -0.46875l0.015625 2.40625q-0.3125 0 -0.234375 -0.9375q0.09375 -0.9375 1.375 1.265625q-9.078125 6.53125 -18.03125 12.375q-8.9375 5.84375 -18.609375 10.796875q-9.671875 4.953125 -19.96875 8.3125q-10.28125 3.34375 -20.21875 3.34375q-26.53125 0 -39.859375 -26.671875l2.125 -1.390625l2.15625 1.296875q-0.59375 1.0 -2.265625 4.21875q-1.65625 3.21875 -3.328125 7.421875q-1.65625 4.203125 -2.78125 8.28125q-1.109375 4.0625 -0.4375 9.15625q-4.46875 4.109375 -6.71875 6.84375q-2.25 2.734375 -3.203125 6.203125q-0.9375 -0.09375 -0.453125 0.046875q0.5 0.140625 1.3125 2.1875q-0.65625 4.609375 -2.078125 6.03125q-1.421875 1.40625 -2.359375 2.109375q-0.828125 0.84375 -1.78125 1.890625q-0.953125 1.03125 -1.359375 1.765625q-0.1875 0.53125 -0.40625 1.90625q-0.203125 1.375 -0.359375 2.171875q0 3.75 -1.40625 5.609375q-2.1875 4.625 -4.15625 8.171875q-1.96875 3.53125 -4.28125 5.84375q-2.296875 2.296875 -5.0 3.1875q-2.703125 0.90625 -5.859375 0.90625z" fill-rule="nonzero"/><path fill="#000000" fill-opacity="0.0" d="m292.8242 8.850393l602.1732 0l0 236.31497l-602.1732 0z" fill-rule="evenodd"/><path fill="#000000" d="m344.2148 243.3879q-8.84375 -6.578125 -13.609375 -11.78125q-4.75 -5.21875 -4.984375 -9.984375q-0.21875 -1.125 -0.21875 -4.078125q0 -6.34375 1.125 -15.859375q1.140625 -9.53125 2.265625 -15.1875q0.90625 -0.90625 1.015625 -2.71875q0.125 -1.8125 -0.109375 -2.265625q0 -0.6875 1.140625 -4.546875q2.71875 -8.375 3.84375 -14.046875q6.125 -18.578125 12.015625 -29.6875q5.890625 -11.109367 13.15625 -20.859367q15.40625 -15.859375 32.859375 -24.015625q8.84375 -5.21875 12.6875 -5.21875q0.6875 0 2.046875 0.453125q27.875 6.125 33.3125 35.359375q2.046875 13.828117 2.046875 20.843742q0 11.34375 -4.078125 22.90625q-4.078125 11.546875 -14.734375 29.0q-9.078125 18.140625 -20.53125 30.953125q-11.4375 12.796875 -22.890625 19.140625q-11.4375 6.34375 -21.40625 6.34375q-8.84375 0 -14.953125 -4.75zm18.125 -14.96875q5.4375 -0.671875 8.5 -2.03125q3.0625 -1.359375 6.34375 -4.640625q3.296875 -3.296875 10.765625 -11.90625q9.53125 -10.875 13.375 -15.96875q3.859375 -5.109375 7.140625 -12.8125q3.28125 -7.71875 7.375 -22.21875l1.359375 -5.21875q1.359375 -4.75 1.921875 -7.8125q0.5625 -3.0625 0.5625 -6.6875l-0.21875 -14.281242q-0.234375 -4.078125 -1.59375 -8.828125q-1.359375 -4.765625 -3.171875 -6.8125q-1.8125 -2.03125 -4.875 -3.5q-3.0625 -1.484375 -6.234375 -1.484375q-2.265625 0 -5.203125 1.140625q-4.3125 1.8125 -12.015625 9.640625q-7.703125 7.8125 -13.71875 15.968742q-6.0 8.15625 -6.0 10.875q0 0.234375 -0.234375 1.375q-0.21875 1.125 -0.90625 2.03125q-5.890625 6.34375 -11.90625 26.75q-6.0 20.390625 -6.90625 35.578125q-0.21875 6.5625 0.109375 9.0625q0.34375 2.5 2.390625 5.671875q1.578125 2.484375 5.765625 4.640625q4.203125 2.15625 7.375 1.46875zm86.13324 9.53125q-0.6875 0.21875 -1.8125 0.21875q-4.765625 0 -7.9375 -5.4375q-3.171875 -5.4375 -3.171875 -13.828125q0 -4.53125 0.90625 -8.84375q2.5 -6.5625 2.5 -9.515625q0.671875 -4.3125 4.640625 -15.53125q3.96875 -11.21875 5.09375 -13.484375q0.90625 0 1.578125 -1.46875q0.6875 -1.46875 0.6875 -3.28125q0 -2.046875 0.796875 -4.1875q0.796875 -2.15625 1.703125 -3.078125q0 -0.671875 0.5625 -2.484375q0.578125 -1.8125 0.578125 -2.5q0 -0.453125 0.5625 -1.6875q0.5625 -1.25 0.5625 -1.9375q3.625 -7.015625 12.6875 -31.609367q9.078125 -24.59375 9.078125 -27.3125q0 -1.8125 1.359375 -3.390625q1.359375 -1.59375 3.171875 -1.59375q0.671875 -0.6875 2.9375 -1.015625q2.265625 -0.34375 3.625 -0.34375l3.640625 3.625q2.484375 2.265625 3.84375 4.078125q1.359375 1.8125 1.359375 4.296875q0 4.078125 -1.46875 8.046875q-1.46875 3.96875 -8.5 18.703125q-0.453125 1.140625 -3.625 8.156242q-2.265625 4.53125 -2.265625 5.21875q0 0.671875 -0.90625 2.828125q-0.90625 2.15625 -1.59375 4.421875q-1.8125 3.625 -5.78125 12.8125q-3.96875 9.171875 -3.96875 10.078125q0 2.5 -1.125 3.625q-0.6875 0 -0.921875 1.03125q-0.21875 1.015625 -0.21875 1.46875q0 2.265625 -3.625 12.015625l-2.03125 6.5625q-4.3125 14.734375 -6.015625 21.546875q-1.703125 6.796875 -1.703125 11.546875q0 4.984375 -1.59375 8.171875q-1.578125 3.171875 -3.609375 4.078125zm55.985443 -97.25q-2.265625 -1.578125 -3.625 -4.0625q-1.359375 -2.5 -1.59375 -4.765625q-0.21875 -2.265625 0.453125 -2.71875q1.359375 -1.5937424 2.71875 -4.3124924q1.359375 -2.71875 2.046875 -3.859375q1.8125 -4.078125 2.9375 -5.890625q1.59375 -3.171875 2.953125 -3.390625q1.8125 -0.90625 2.9375 -0.90625q2.953125 0 6.46875 2.046875q3.515625 2.03125 5.328125 4.75q1.578125 3.625 1.578125 6.34375q0 5.4374924 -5.203125 12.015617q-2.265625 2.9375 -5.453125 4.53125q-3.171875 1.59375 -6.34375 1.59375q-3.171875 0 -5.203125 -1.375zm-24.484375 90.890625q-3.171875 -3.171875 -3.171875 -11.328125q0 -4.3125 1.140625 -6.578125q0 -1.125 0.453125 -2.703125q0.453125 -1.59375 0.453125 -2.046875q-0.234375 -1.359375 1.8125 -7.484375q2.71875 -6.125 6.90625 -18.8125q4.1875 -12.6875 5.78125 -18.125q0 -1.140625 0.90625 -1.921875q0.90625 -0.796875 2.71875 -1.03125q2.5 -0.90625 6.34375 2.15625q3.859375 3.0625 6.34375 6.90625q1.359375 1.359375 1.359375 3.625q0 3.40625 -2.9375 9.53125q-1.140625 2.484375 -2.15625 6.109375q-1.015625 3.625 -1.703125 6.796875q-2.71875 6.125 -4.296875 11.34375q-0.6875 2.9375 -0.90625 4.53125q-1.59375 8.390625 -2.953125 10.875q-1.359375 5.671875 -3.859375 8.5q-2.484375 2.828125 -5.65625 2.828125q-3.859375 0 -6.578125 -3.171875zm70.94025 -2.03125q-2.484375 1.8125 -5.4375 1.8125q-3.390625 0 -5.890625 -2.5q-4.53125 -4.53125 -7.59375 -16.984375q-3.0625 -12.46875 -3.0625 -32.1875q1.140625 -12.25 1.140625 -26.078125q1.8125 -1.125 4.75 -1.125q4.09375 0 8.171875 1.8125q2.265625 1.125 3.28125 3.515625q1.015625 2.375 1.359375 7.8125q0.34375 5.4375 0.34375 17.6875l-0.453125 5.4375l-0.453125 11.328125q0 3.625 0.453125 4.078125q0.21875 0.453125 0.4375 1.03125q0.234375 0.5625 0.46875 0.5625q0.21875 0 3.390625 -3.171875l3.859375 -6.578125q2.71875 -4.984375 3.859375 -6.578125q1.125 -1.125 4.078125 -5.4375l3.625 -4.53125q0.671875 -1.140625 2.375 -3.28125q1.703125 -2.15625 2.15625 -3.296875q2.484375 -4.078125 5.203125 -7.015625q2.734375 -2.953125 3.640625 -2.953125q0.21875 0.234375 0.90625 0.234375q0.90625 0 2.9375 -0.671875q2.046875 -0.6875 2.953125 -0.921875q0.90625 -0.90625 1.8125 -0.90625q1.359375 0 2.484375 0.90625q2.265625 1.8125 2.265625 3.171875q0 2.046875 -2.71875 10.203125q-2.71875 8.15625 -4.296875 8.84375l-2.265625 2.265625q-0.6875 2.9375 -8.84375 14.5q-8.15625 11.5625 -14.953125 20.171875q-2.265625 2.953125 -5.109375 5.453125q-2.828125 2.484375 -4.875 3.390625zm70.72632 9.96875q-25.84375 0 -25.84375 -29.46875q0 -10.640625 5.328125 -24.125q5.328125 -13.5 13.375 -24.265625q8.046875 -10.765625 15.96875 -14.390625q4.3125 -2.265625 9.984375 -2.265625q10.1875 0 17.78125 4.421875q7.59375 4.421875 7.59375 16.65625q0 7.03125 -4.765625 15.421875q-4.75 8.375 -11.890625 14.15625q-7.140625 5.78125 -13.9375 5.78125q-10.203125 0 -17.21875 -6.578125q-3.859375 7.71875 -3.859375 14.734375q0 5.671875 1.359375 8.734375q1.359375 3.0625 6.34375 3.0625q4.765625 0 7.703125 -1.359375q2.953125 -1.359375 5.4375 -3.171875q2.5 -1.828125 3.859375 -2.734375l0.90625 -0.453125l-0.21875 0q4.078125 -2.265625 6.0 -3.5q1.921875 -1.25 3.28125 -1.703125q3.40625 0 6.34375 2.046875q2.953125 2.03125 2.953125 4.96875q0 2.28125 -4.078125 7.375q-4.078125 5.09375 -8.390625 7.140625l-2.71875 1.359375l0.234375 0q-2.046875 2.71875 -4.078125 2.71875l-1.8125 0q-0.90625 1.8125 -6.015625 3.625q-5.09375 1.8125 -9.625 1.8125zm11.78125 -54.625q6.34375 0 10.53125 -5.4375q4.203125 -5.4375 4.203125 -10.875q0 -2.5 -1.25 -4.53125q-1.25 -2.046875 -3.28125 -2.046875q-3.859375 0 -8.625 3.625q-4.75 3.625 -8.375 9.515625l-2.953125 4.765625q0.90625 -0.453125 1.359375 -0.453125q1.8125 0 2.71875 1.59375q0.90625 1.578125 2.03125 2.71875q1.140625 1.125 3.640625 1.125zm78.87506 -43.734375q-2.71875 0 -6.578125 -2.5q-3.84375 -2.5 -6.6875 -6.453125q-2.828125 -3.96875 -2.828125 -8.046867q0 -1.359375 4.765625 -8.390625q3.171875 -4.3125 3.171875 -5.21875q1.578125 0 4.078125 0.6875q2.5 0.671875 4.3125 1.578125q1.359375 3.171875 5.4375 8.15625q2.71875 3.40625 3.953125 5.671875q1.25 2.2656174 1.25 4.7656174q0 4.984375 -2.609375 7.375q-2.59375 2.375 -8.265625 2.375zm-30.828125 86.796875q-0.671875 0 -3.28125 -1.125q-2.609375 -1.140625 -3.515625 -1.59375q0 -0.671875 -0.5625 -2.375q-0.5625 -1.703125 -0.5625 -2.15625q-2.046875 -0.90625 -3.296875 -3.0625q-1.25 -2.15625 -0.5625 -4.421875q3.171875 -5.4375 11.4375 -25.03125q8.28125 -19.609375 9.1875 -22.5625q0 -4.984375 3.171875 -7.03125q1.59375 -1.125 3.171875 -1.125q3.859375 0 7.25 5.21875q3.40625 5.203125 3.40625 12.234375q0 2.71875 -5.109375 15.53125q-5.09375 12.796875 -11.4375 25.71875q-3.625 7.25 -5.328125 9.515625q-1.703125 2.265625 -3.96875 2.265625zm44.20587 4.078125q-1.59375 0 -4.203125 -2.265625q-2.59375 -2.265625 -3.046875 -4.078125q-0.234375 -0.453125 -0.234375 -2.03125q0 -2.953125 2.71875 -11.5625l1.59375 -7.25q2.265625 -9.984375 4.078125 -16.78125q0.671875 -1.359375 2.71875 -7.703125q1.359375 -4.984375 3.625 -9.75q2.71875 -10.1875 8.609375 -20.171875q0.6875 -1.125 2.265625 -2.703125q1.59375 -1.59375 2.265625 -1.59375q1.359375 -1.359375 3.859375 -1.359375q3.625 0 6.578125 2.484375q2.9375 3.40625 2.9375 7.25q0 4.3125 -3.171875 10.65625q-1.8125 4.984375 -5.890625 12.6875q-3.171875 5.671875 -3.859375 7.484375q2.71875 -3.625 11.796875 -13.59375q2.71875 -2.953125 5.203125 -4.875q2.5 -1.921875 7.484375 -5.09375q4.984375 -3.640625 7.921875 -5.109375q2.953125 -1.46875 6.8125 -1.46875q1.8125 0 2.71875 0.21875q2.953125 -0.21875 6.234375 3.859375q3.28125 4.078125 3.28125 9.296875q0 2.03125 -0.671875 4.078125q-2.71875 -0.453125 -3.859375 -0.453125q-4.53125 0 -8.046875 1.8125q-3.515625 1.8125 -5.78125 3.515625q-2.265625 1.703125 -2.9375 2.15625q-7.9375 5.203125 -18.8125 14.046875q-5.453125 4.53125 -8.171875 7.9375q-2.71875 3.390625 -4.296875 7.25q-0.453125 1.359375 -4.3125 10.546875q-3.84375 9.171875 -5.890625 10.75q-1.125 2.5 -5.890625 2.5q-2.5 0 -3.625 -0.6875zm80.23688 -1.359375q-0.6875 -1.359375 -3.859375 -3.625q-3.171875 -2.265625 -3.171875 -2.71875q0 -0.90625 -1.015625 -2.59375q-1.015625 -1.703125 -1.9375 -3.0625q-1.8125 -1.8125 2.5 -11.78125q4.3125 -9.984375 11.5625 -23.578125q1.359375 -1.359375 3.515625 -4.765625q2.15625 -3.40625 2.828125 -3.859375q0 -0.90625 0.671875 -1.6875q0.6875 -0.796875 1.59375 -0.796875l1.8125 -3.625q0.90625 -2.046875 8.84375 -9.75q7.9375 -7.703125 12.46875 -10.421875q4.296875 -2.953125 9.28125 -2.953125q5.453125 0 9.296875 3.171875l6.125 5.21875q6.796875 5.65625 7.703125 6.578125l8.390625 7.46875l-3.859375 11.34375q-2.03125 6.109375 -2.03125 11.546875q0 8.625 4.75 16.09375q1.140625 2.5 3.0625 3.859375q1.921875 1.359375 5.09375 1.8125q5.0 0.90625 5.0 4.984375q0 4.984375 -1.828125 7.484375q-1.8125 2.484375 -4.296875 3.171875q-3.625 0.453125 -4.984375 0.453125q-6.578125 0 -12.015625 -3.390625q-5.4375 -3.40625 -9.515625 -11.578125q-0.90625 -1.359375 -2.390625 -4.984375q-1.46875 -3.625 -1.6875 -4.984375q-1.59375 2.265625 -5.21875 5.890625q-23.34375 23.578125 -37.859375 23.578125q-4.984375 0 -8.828125 -2.5zm12.46875 -18.8125q3.625 0.453125 14.046875 -8.15625q1.125 -0.90625 2.484375 -2.140625q1.375 -1.25 2.953125 -2.609375q6.34375 -5.21875 9.859375 -8.734375q3.515625 -3.515625 7.140625 -8.5l4.984375 -8.15625q-2.265625 -4.984375 -4.078125 -6.6875q-1.8125 -1.703125 -3.625 -1.703125q-4.53125 0 -11.34375 8.046875q-6.796875 8.046875 -16.3125 24.359375q-2.484375 4.09375 -4.078125 8.515625q-1.578125 4.40625 -2.03125 5.765625z" fill-rule="nonzero"/></g></svg>